<?xml version="1.0" standalone="no"?>
<!DOCTYPE svg PUBLIC "-//W3C//DTD SVG 20010904//EN"
 "http://www.w3.org/TR/2001/REC-SVG-20010904/DTD/svg10.dtd">
<svg version="1.0" xmlns="http://www.w3.org/2000/svg"
 width="100.000000pt" height="99.000000pt" viewBox="0 0 100.000000 99.000000"
 preserveAspectRatio="xMidYMid meet">

<g transform="translate(0.000000,99.000000) scale(0.100000,-0.100000)"
fill="#000000" stroke="none">
<path d="M648 962 c-37 -43 -369 -623 -366 -639 2 -10 12 -19 24 -21 17 -2 49
46 203 308 101 171 185 319 188 329 7 29 -30 46 -49 23z m32 -14 c0 -7 -37
-75 -82 -153 -199 -342 -282 -475 -295 -475 -18 0 -45 -49 282 508 72 122 95
151 95 120z"/>
<path d="M187 814 c-139 -76 -158 -89 -155 -109 4 -28 226 -273 249 -274 9 -1
22 6 29 14 14 17 6 27 -128 174 l-73 80 108 59 c59 33 121 67 136 76 20 11 28
22 25 38 -2 13 -10 24 -18 25 -8 2 -86 -36 -173 -83z m171 54 c-4 -11 -238
-148 -273 -161 -5 -2 40 -56 100 -121 115 -122 128 -140 101 -134 -25 5 -247
251 -236 262 13 13 293 166 303 166 5 0 7 -6 5 -12z"/>
<path d="M670 818 c0 -15 35 -60 101 -131 56 -59 98 -111 95 -115 -4 -3 -64
-38 -134 -77 -94 -52 -128 -76 -130 -91 -6 -45 29 -35 187 52 147 81 174 100
168 116 -1 3 -56 65 -121 137 -88 96 -126 131 -143 131 -17 0 -23 -6 -23 -22z
m266 -253 c-2 -9 -294 -174 -308 -175 -5 0 -8 6 -8 13 0 6 63 46 140 87 77 41
138 78 137 82 -1 3 -50 59 -110 123 -60 65 -104 122 -100 128 7 12 254 -242
249 -258z"/>
</g>
</svg>
